{"title":"La.Piel.que.Habito.2011.BDRip.720p.x264-boofer","uid":6883047,"size":8210985451,"categoryP":"video","categoryS":"hd___movies","magnet":"?xt=urn:btih:8b28066ed3022d90e13676362a41fc879eeaba0c&amp;dn=La.Piel.que.Habito.2011.BDRip.720p.x264-boofer&amp;tr=udp%3A%2F%2Ftracker.openbittorrent.com%3A80&amp;tr=udp%3A%2F%2Fopen.demonii.com%3A1337&amp;tr=udp%3A%2F%2Ftracker.coppersurfer.tk%3A6969&amp;tr=udp%3A%2F%2Fexodus.desync.com%3A6969","seeders":6,"leechers":0,"uploader":"mfccorrea","files":3,"time":1323714602,"description":"Pedro Almodovar's The Skin I Live In finds him joining forces with Antonio Banderas for the first time in over 20 years. Banderas plays Dr. Robert Ledgard, a plastic surgeon who has invented a type of fake skin that is more durable than real skin. But he achieves this breakthrough with the assistance of Vera (Elena Anaya), a young woman he's keeping locked up in his mansion. The only person who knows about this unusual arrangement is his maid, Marilia (Marisa Paredes). But his secret, as well as additional sins of the past he's desperate to keep hidden, bubble to the surface when Marila's criminal son shows up with a gun, forces his way into Vera's room, and attempts to rape her.\n\n   General\n      Complete name : La.Piel.que.Habito.2011.BDRip.720p.x264-boofer.mkv\n      Format : Matroska\n      File size : 7.65 GiB\n      Duration : 2h 0mn\n      Overall bit rate : 9 110 Kbps\n      Movie name :  = boofer =\n      Encoded date : UTC 2011-12-11 19:12:34\n      Writing application : mkvmerge v4.9.1 ('Ich will') built on Sep 30 2011 22:45:24\n      Writing library : libebml v1.2.1 + libmatroska v1.1.1\n   Video #1\n      ID : 1\n      Format : AVC\n      Format/Info : Advanced Video Codec\n      Format profile : &lt;a class=&quot;__cf_email__&quot; href=&quot;/cdn-cgi/l/email-protection&quot; data-cfemail=&quot;a1e9c8c6c9e1ed958f90&quot;&gt;[email&amp;#160;protected]&lt;/a&gt;&lt;script cf-hash='f9e31' type=&quot;text/javascript&quot;&gt;\n/* &lt;![CDATA[ */!function(){try{var t=&quot;currentScript&quot;in document?document.currentScript:function(){for(var t=document.getElementsByTagName(&quot;script&quot;),e=t.length;e--;)if(t[e].getAttribute(&quot;cf-hash&quot;))return t[e]}();if(t&amp;&amp;t.previousSibling){var e,r,n,i,c=t.previousSibling,a=c.getAttribute(&quot;data-cfemail&quot;);if(a){for(e=&quot;&quot;,r=parseInt(a.substr(0,2),16),n=2;a.length-n;n+=2)i=parseInt(a.substr(n,2),16)^r,e+=String.fromCharCode(i);e=document.createTextNode(e),c.parentNode.replaceChild(e,c)}}}catch(u){}}();/* ]]&gt; */&lt;/script&gt;\n      Format settings, CABAC : Yes\n      Format settings, ReFrames : 8 frames\n      Muxing mode : Container profile=&lt;a class=&quot;__cf_email__&quot; href=&quot;/cdn-cgi/l/email-protection&quot; data-cfemail=&quot;2f7a4144414058416f1b011e&quot;&gt;[email&amp;#160;protected]&lt;/a&gt;&lt;script cf-hash='f9e31' type=&quot;text/javascript&quot;&gt;\n/* &lt;![CDATA[ */!function(){try{var t=&quot;currentScript&quot;in document?document.currentScript:function(){for(var t=document.getElementsByTagName(&quot;script&quot;),e=t.length;e--;)if(t[e].getAttribute(&quot;cf-hash&quot;))return t[e]}();if(t&amp;&amp;t.previousSibling){var e,r,n,i,c=t.previousSibling,a=c.getAttribute(&quot;data-cfemail&quot;);if(a){for(e=&quot;&quot;,r=parseInt(a.substr(0,2),16),n=2;a.length-n;n+=2)i=parseInt(a.substr(n,2),16)^r,e+=String.fromCharCode(i);e=document.createTextNode(e),c.parentNode.replaceChild(e,c)}}}catch(u){}}();/* ]]&gt; */&lt;/script&gt;\n      Codec ID : V_MPEG4/ISO/AVC\n      Duration : 2h 0mn\n      Bit rate : 7 419 Kbps\n      Nominal bit rate : 7 600 Kbps\n      Width : 1 280 pixels\n      Height : 692 pixels\n      Display aspect ratio : 1.850\n      Frame rate : 24.000 fps\n      Resolution : 24 bits\n      Colorimetry : 4:2:0\n      Scan type : Progressive\n      Bits/(Pixel*Frame) : 0.349\n      Stream size : 6.23 GiB (81%)\n      Writing library : x264 core 116 r2074 2641b9e     \n   Audio #2\n      ID : 2\n      Format : DTS\n      Format/Info : Digital Theater Systems\n      Codec ID : A_DTS\n      Duration : 2h 0mn\n      Bit rate mode : Constant\n      Bit rate : 1 510 Kbps\n      Channel(s) : 6 channels\n      Channel positions : Front: L C R, Surround: L R, LFE\n      Sampling rate : 48.0 KHz\n      Resolution : 16 bits\n      Stream size : 1.27 GiB (17%)\n      Title : DTS\n      Language : Spanish\n &lt;a href=&quot;\nhttp://www.imdb.com/title/tt1189073/&quot; rel=&quot;nofollow&quot; target=&quot;_NEW&quot;&gt;\nhttp://www.imdb.com/title/tt1189073/&lt;/a&gt;\n\nLanguage: Spanish\nSubtitles: English and Portuguese (srt)","torrent":{"xt":"urn:btih:8b28066ed3022d90e13676362a41fc879eeaba0c","amp;dn":"La.Piel.que.Habito.2011.BDRip.720p.x264-boofer","amp;tr":["udp%3A%2F%2Ftracker.openbittorrent.com%3A80","udp%3A%2F%2Fopen.demonii.com%3A1337","udp%3A%2F%2Ftracker.coppersurfer.tk%3A6969","udp%3A%2F%2Fexodus.desync.com%3A6969"],"infoHash":"8b28066ed3022d90e13676362a41fc879eeaba0c","infoHashBuffer":{"type":"Buffer","data":[139,40,6,110,211,2,45,144,225,54,118,54,42,65,252,135,158,234,186,12]},"announce":[],"urlList":[]}}